<svg xmlns="http://www.w3.org/2000/svg" width="342" height="329" viewBox="0 0 342 329" fill="none">
	<path d="M243.564 171.873C243.046 178.945 241.56 185.716 239.231 192.057C231.765 212.288 215.818 228.17 195.97 235.714C186.164 239.437 175.402 241.134 164.247 240.318L163.881 240.291C123.24 237.111 92.7631 201.725 95.7388 161.057C98.7228 120.274 134.24 89.6248 175.055 92.6112C188.546 93.5984 200.947 98.1411 211.365 105.255C212.946 106.312 214.452 107.435 215.908 108.623C216.475 109.056 217.041 109.512 217.582 109.989C221.614 113.412 225.271 117.247 228.488 121.439C229.539 122.805 230.541 124.213 231.494 125.664C233.113 128.082 234.563 130.604 235.891 133.232C240.658 142.67 243.43 153.25 243.722 164.361C243.793 166.851 243.748 169.356 243.564 171.874L243.564 171.873Z" fill="#484A56"/>
	<path d="M243.564 171.874C243.748 169.356 243.793 166.851 243.722 164.361C243.43 153.25 240.658 142.67 235.891 133.232C234.563 130.604 233.113 128.082 231.494 125.664C230.541 124.213 229.539 122.805 228.488 121.439C225.271 117.247 221.613 113.412 217.582 109.989C217.31 109.75 217.023 109.533 216.742 109.304C202.733 126.253 187.808 140.118 154.407 154.897C154.043 153.987 153.03 153.516 152.099 153.85L132.994 160.724C125.936 163.264 121.678 170.105 122.094 177.227C118.031 181.37 116.438 187.609 118.538 193.431C120.641 199.267 125.869 203.064 131.659 203.654C135.901 209.322 143.495 211.825 150.506 209.303L152.437 208.608C152.474 208.773 152.524 208.935 152.562 209.1C152.639 209.414 152.713 209.731 152.797 210.04C152.841 210.23 152.896 210.409 152.944 210.591C153.011 210.839 153.065 211.091 153.134 211.338L153.142 211.339C153.8 213.662 154.578 215.925 155.254 217.997C156.95 223.137 161.083 228.018 163.37 232.949C164.572 235.534 165.918 238.091 167.46 240.464C177.466 240.766 187.111 239.079 195.971 235.714C197.427 235.16 198.858 234.548 200.271 233.905C199.194 231.596 197.77 229.407 196.451 227.408C192.638 221.632 188.142 216.381 183.938 210.921L183.94 210.921C183.535 210.412 183.139 209.906 182.764 209.413C182.501 209.066 182.238 208.718 181.974 208.372C186.949 208.95 190.403 206.982 187.311 203.934C186.084 202.725 185.297 201.381 184.792 200.03C184.288 198.687 184.095 197.347 184.045 196.107C206.789 190.409 222.221 191.282 238.385 194.169C238.669 193.466 238.967 192.77 239.23 192.057C241.56 185.716 243.046 178.946 243.564 171.874Z" fill="#343641"/>
	<path d="M142.007 179.449C139.085 171.341 130.139 167.135 122.026 170.055C113.912 172.974 109.705 181.912 112.627 190.02C115.549 198.126 124.495 202.332 132.609 199.413C140.721 196.494 144.929 187.556 142.007 179.449L142.007 179.449Z" fill="#E6F7FF"/>
	<path d="M117.347 182.469C117.547 183.023 116.762 183.812 115.595 184.232C114.428 184.652 113.319 184.544 113.119 183.989C112.92 183.436 113.704 182.647 114.871 182.225C116.039 181.805 117.147 181.914 117.347 182.469L117.347 182.469Z" fill="#C9E4F2"/>
	<path d="M119.214 187.65C119.414 188.204 118.629 188.994 117.463 189.414C116.295 189.834 115.187 189.725 114.987 189.171C114.788 188.617 115.572 187.827 116.739 187.407C117.907 186.987 119.014 187.096 119.214 187.65Z" fill="#C9E4F2"/>
	<path d="M121.082 192.831C121.281 193.385 120.497 194.174 119.33 194.595C118.163 195.014 117.055 194.907 116.855 194.352C116.656 193.798 117.44 193.008 118.607 192.588C119.774 192.167 120.882 192.277 121.082 192.831Z" fill="#C9E4F2"/>
	<path d="M178.812 187.377C178.812 187.377 176.032 195.23 181.401 200.523C185.833 204.89 176.832 207.058 169.158 202.661C161.484 198.264 172 183.386 178.811 187.376L178.812 187.377Z" fill="#E6F7FF"/>
	<path d="M178.812 187.377C173.998 184.555 167.362 191.156 166.577 196.826L166.947 197.849L178.882 196.618C177.172 192.052 178.812 187.376 178.812 187.376L178.812 187.377Z" fill="#CEEAF7"/>
	<path d="M195.97 235.715C186.164 239.438 175.402 241.135 164.247 240.319L163.881 240.292C161.279 237.133 159.231 233.349 157.461 229.538C155.174 224.607 151.04 219.726 149.344 214.586C148.667 212.512 147.888 210.246 147.23 207.919C147.099 207.496 146.992 207.074 146.887 206.629C146.759 206.159 146.633 205.69 146.53 205.2C146.443 204.825 146.356 204.428 146.291 204.054C146.209 203.611 146.123 203.19 146.065 202.75C145.997 202.423 145.953 202.074 145.93 201.751C145.883 201.447 145.86 201.148 145.836 200.846C145.789 200.544 145.789 200.222 145.765 199.921C145.744 199.574 145.745 199.252 145.745 198.93C145.753 198.518 145.76 198.104 145.79 197.691C145.81 197.416 145.83 197.142 145.874 196.869C145.887 196.686 145.924 196.481 145.961 196.3C146.058 195.616 146.198 194.96 146.517 194.363C148.186 191.056 157.998 189.15 161.844 188.512C162.822 188.353 163.425 188.283 163.425 188.283C164.789 190.107 166.176 191.912 167.541 193.715C167.94 194.251 168.339 194.785 168.739 195.298C169.307 196.03 169.852 196.759 170.42 197.491C172.286 199.998 174.176 202.483 176.066 204.969C176.319 205.309 176.592 205.652 176.844 205.992C177.222 206.503 177.621 207.016 178.001 207.503L178.023 207.505C182.229 212.966 186.727 218.219 190.54 223.998C192.821 227.454 195.452 231.467 195.97 235.715L195.97 235.715Z" fill="#E45953"/>
	<path d="M178.03 207.509C177.624 207 177.229 206.495 176.854 206.001C172.374 200.096 167.896 194.193 163.417 188.288C163.417 188.288 148.604 190.202 146.507 194.373C146.119 195.146 145.977 196.005 145.868 196.877C145.431 200.363 146.177 204.222 147.223 207.928L178.03 207.51L178.03 207.509Z" fill="#D53C3A"/>
	<path d="M227.89 84.3618L268.85 197.994C227.97 191.045 210.921 180.041 157.029 199.152C151.694 201.043 146.222 198.365 144.639 193.973L134.764 166.581C133.181 162.188 135.777 156.857 141.004 154.699C193.91 132.85 204.507 113.59 227.89 84.3623L227.89 84.3618Z" fill="#F1FAFF"/>
	<path d="M232.919 98.3132C233.131 101.954 233.117 105.632 232.846 109.337C229.761 151.492 195.496 185.466 148.827 198.585C151.17 199.819 154.108 200.186 157.029 199.151C210.921 180.041 227.97 191.045 268.85 197.994L232.918 98.3137L232.919 98.3132Z" fill="#DDEEF7"/>
	<path d="M256.816 138.141C268.127 169.519 273.16 196.445 268.841 197.999C264.522 199.553 257.005 202.258 236.525 145.442C215.631 87.4762 223.562 85.9213 227.881 84.367C232.2 82.8127 245.506 106.762 256.816 138.141L256.816 138.141Z" fill="#F76C66"/>
	<path d="M253.017 139.508C262.085 164.666 267.921 185.605 266.052 186.277C264.182 186.95 255.315 167.101 246.247 141.944C237.179 116.786 231.343 95.8476 233.212 95.175C235.082 94.5021 243.948 114.351 253.017 139.508L253.017 139.508Z" fill="#D53C3A"/>
	<path d="M257.52 121.191L246.797 123L240.127 124.132C241.915 129.635 243.992 135.667 246.257 141.951C248.522 148.233 250.764 154.182 252.898 159.561L258.759 156.183L268.174 150.747C271.084 149.067 272.371 145.531 271.228 142.357L265.227 125.71C264.083 122.537 260.834 120.633 257.52 121.191L257.52 121.191Z" fill="#D0D0D0"/>
	<path d="M259.39 126.292C259.838 127.537 257.615 129.477 254.424 130.624C251.234 131.772 248.284 131.694 247.835 130.45C247.386 129.205 249.609 127.266 252.8 126.118C255.991 124.97 258.94 125.048 259.39 126.292L259.39 126.292Z" fill="white"/>
	<path d="M144.595 205.891L163.7 199.018C164.65 198.676 165.143 197.629 164.801 196.678L148.53 151.54C148.187 150.589 147.139 150.096 146.189 150.439L127.084 157.313C118.491 160.404 114.034 169.872 117.129 178.459L123.431 195.942C126.527 204.529 136.002 208.983 144.595 205.891L144.595 205.891Z" fill="#E45953"/>
	<path d="M120.85 176.283L120.804 176.3C120.198 176.49 119.554 176.153 119.364 175.549C116.546 166.578 124.637 161.03 129.309 159.349C129.905 159.135 130.562 159.444 130.777 160.038C130.993 160.635 130.684 161.29 130.088 161.507C129.622 161.678 118.695 165.755 121.555 174.86C121.74 175.451 121.425 176.077 120.85 176.284L120.85 176.283Z" fill="#E45953"/>
	<path d="M136.568 157.957C136.295 157.199 135.458 156.805 134.699 157.078C133.941 157.351 133.546 158.188 133.82 158.946C134.094 159.703 134.93 160.097 135.689 159.824C136.448 159.551 136.841 158.715 136.568 157.957Z" fill="#E45953"/>
	<path d="M235.423 133.591C234.827 133.806 234.168 133.497 233.954 132.9C231.465 125.995 223.465 102.497 225.042 90.0578C225.122 89.4289 225.697 88.9863 226.326 89.0647C226.954 89.1435 227.4 89.7187 227.32 90.3476C226.119 99.8269 231.075 118.144 236.115 132.123C236.33 132.719 236.02 133.376 235.424 133.59L235.423 133.591Z" fill="#D53C3A"/>
	<path d="M228.304 86.3164C228.056 85.6266 227.294 85.2685 226.604 85.5172C225.913 85.7657 225.554 86.5269 225.803 87.2163C226.052 87.9066 226.813 88.265 227.504 88.0169C228.195 87.7679 228.554 87.0067 228.304 86.3164Z" fill="#D53C3A"/>
	<path d="M172.939 216.947L159.566 221.758C158.97 221.973 158.312 221.664 158.097 221.067C157.882 220.47 158.191 219.813 158.788 219.599L172.161 214.788C172.758 214.573 173.415 214.881 173.63 215.478C173.845 216.075 173.535 216.732 172.939 216.947Z" fill="#D53C3A"/>
	<path d="M179.264 225.218L165.891 230.029C165.294 230.245 164.637 229.935 164.422 229.339C164.207 228.743 164.516 228.085 165.112 227.87L178.485 223.059C179.082 222.845 179.74 223.154 179.954 223.75C180.17 224.347 179.86 225.004 179.264 225.218Z" fill="#D53C3A"/>
	<path d="M185.024 233.692L171.652 238.503C171.055 238.718 170.398 238.409 170.183 237.812C169.967 237.217 170.277 236.559 170.874 236.345L184.247 231.533C184.843 231.319 185.501 231.627 185.716 232.224C185.931 232.821 185.621 233.477 185.024 233.692L185.024 233.692Z" fill="#D53C3A"/>
	<path d="M164.801 196.678L155.07 169.682C152.529 184.937 142.581 197.425 129.255 203.7C133.539 206.811 139.238 207.818 144.595 205.891L163.7 199.017C164.65 198.676 165.143 197.628 164.801 196.678L164.801 196.678Z" fill="#D53C3A"/>
	<path d="M267.379 35.1367L251.505 61.3018C250.985 62.1588 251.365 63.2736 252.273 63.5562L260.926 66.2479C261.718 66.4941 262.131 67.3907 261.832 68.2142L257.651 79.7443C257.062 81.3654 259.059 82.5401 260.123 81.1986L276.98 59.944C277.624 59.1326 277.341 57.9241 276.423 57.5611L266.813 53.7556C266.131 53.486 265.765 52.7196 265.958 51.9705L270.012 36.2805C270.45 34.5845 268.285 33.6441 267.38 35.1367L267.379 35.1367Z" fill="#E7CA8B"/>
	<path d="M267.115 40.7112L256.511 61.0139C256.217 61.5747 255.524 61.7934 254.961 61.5005C254.399 61.2064 254.181 60.5142 254.475 59.9512L254.499 59.9051L266.03 40.1129C266.203 39.8164 266.582 39.7174 266.879 39.8887C267.166 40.0551 267.267 40.4191 267.115 40.7116L267.115 40.7112Z" fill="#D0B372"/>
	<path d="M274.574 60.3793C274.468 60.3716 274.363 60.3507 274.259 60.3116L265.631 57.1302C265.036 56.911 264.732 56.2505 264.952 55.6561C265.172 55.0607 265.829 54.7568 266.427 54.9779L275.055 58.1589C275.649 58.3779 275.954 59.0385 275.734 59.6334C275.552 60.1235 275.071 60.4157 274.574 60.3793Z" fill="#D0B372"/>
	<path d="M320.563 88.2733L291.783 98.728C290.841 99.0695 290.439 100.176 290.969 100.965L296.027 108.479C296.49 109.167 296.249 110.124 295.5 110.579L285.011 116.947C283.536 117.843 284.356 120.008 286.026 119.628L312.492 113.616C313.504 113.386 314.041 112.269 313.553 111.41L308.447 102.428C308.085 101.791 308.28 100.965 308.901 100.503L321.898 90.8121C323.303 89.7645 322.205 87.6762 320.563 88.2728L320.563 88.2733Z" fill="#E7CA8B"/>
	<path d="M316.861 92.4522L295.865 101.637C295.284 101.89 294.607 101.626 294.351 101.045C294.097 100.464 294.362 99.7887 294.944 99.5344L294.993 99.5139L316.391 91.3061C316.711 91.1837 317.069 91.3435 317.193 91.663C317.311 91.9727 317.163 92.3192 316.861 92.4526L316.861 92.4522Z" fill="#D0B372"/>
	<path d="M310.343 112.449C310.266 112.378 310.197 112.295 310.141 112.199L305.41 104.32C305.084 103.777 305.26 103.072 305.805 102.745C306.35 102.419 307.053 102.593 307.38 103.139L312.11 111.02C312.437 111.563 312.26 112.267 311.716 112.594C311.267 112.863 310.708 112.789 310.343 112.449Z" fill="#D0B372"/>
	<path d="M339.922 164.517L310.385 156.436C309.418 156.171 308.449 156.841 308.427 157.792L308.21 166.844C308.19 167.673 307.441 168.315 306.566 168.254L294.322 167.396C292.6 167.275 292.018 169.516 293.601 170.171L318.681 180.542C319.639 180.938 320.724 180.335 320.823 179.354L321.848 169.076C321.92 168.347 322.557 167.785 323.331 167.765L339.544 167.359C341.296 167.316 341.608 164.978 339.922 164.516L339.922 164.517Z" fill="#E7CA8B"/>
	<path d="M334.485 165.79L312.035 161.166C311.415 161.038 311.015 160.431 311.142 159.81C311.27 159.189 311.877 158.79 312.5 158.918L312.551 158.929L334.763 164.583C335.096 164.667 335.295 165.004 335.212 165.337C335.13 165.659 334.807 165.856 334.485 165.79L334.485 165.79Z" fill="#D0B372"/>
	<path d="M317.601 178.348C317.58 178.245 317.572 178.139 317.581 178.028L318.276 168.865C318.322 168.233 318.875 167.76 319.508 167.808C320.142 167.856 320.615 168.406 320.566 169.039L319.871 178.202C319.823 178.833 319.271 179.307 318.639 179.259C318.117 179.219 317.704 178.836 317.601 178.348Z" fill="#D0B372"/>
	<path d="M255.034 247.218C254.879 247.162 254.733 247.072 254.608 246.948C254.155 246.495 254.154 245.761 254.607 245.307C257.303 242.607 259.895 239.739 262.315 236.783C262.72 236.288 263.45 236.213 263.948 236.621C264.444 237.027 264.517 237.758 264.111 238.254C261.644 241.268 259 244.193 256.251 246.948C255.922 247.276 255.445 247.367 255.034 247.218L255.034 247.218ZM237.133 261.946C236.909 261.865 236.707 261.714 236.564 261.501C236.207 260.968 236.349 260.248 236.882 259.89C238.842 258.576 240.787 257.185 242.664 255.755C243.817 254.877 244.974 253.961 246.101 253.033C246.596 252.625 247.329 252.697 247.736 253.191C248.144 253.687 248.072 254.419 247.577 254.826C246.426 255.773 245.247 256.707 244.071 257.602C242.157 259.06 240.173 260.479 238.174 261.819C237.855 262.032 237.469 262.067 237.133 261.946L237.133 261.946Z" fill="#90CAF9"/>
	<path d="M284.762 129.77C284.427 129.649 284.151 129.376 284.042 129.008C282.956 125.347 281.677 121.699 280.242 118.164C280.001 117.57 280.286 116.893 280.88 116.651C281.476 116.41 282.151 116.698 282.392 117.29C283.856 120.894 285.16 124.615 286.268 128.347C286.45 128.962 286.099 129.608 285.485 129.79C285.239 129.863 284.986 129.85 284.762 129.769L284.762 129.77ZM289.154 152.527C288.744 152.379 288.434 152.005 288.391 151.542C288.039 147.744 287.493 143.917 286.769 140.169C286.647 139.54 287.058 138.931 287.688 138.809C288.315 138.689 288.926 139.099 289.049 139.729C289.786 143.551 290.343 147.454 290.703 151.327C290.763 151.966 290.294 152.532 289.655 152.591C289.48 152.607 289.31 152.583 289.154 152.526L289.154 152.527ZM289.019 175.701C288.528 175.524 288.202 175.031 288.259 174.489C288.656 170.693 288.869 166.836 288.89 163.02C288.894 162.379 289.417 161.862 290.058 161.865C290.697 161.869 291.215 162.392 291.212 163.033C291.19 166.925 290.973 170.86 290.568 174.731C290.502 175.367 289.93 175.831 289.292 175.764C289.197 175.755 289.105 175.732 289.019 175.701ZM286.274 191.483C285.723 191.284 285.399 190.698 285.541 190.116C285.888 188.697 286.211 187.259 286.502 185.84C286.631 185.212 287.245 184.807 287.873 184.936C288.498 185.065 288.905 185.679 288.776 186.307C288.48 187.754 288.15 189.221 287.797 190.667C287.645 191.29 287.016 191.671 286.394 191.519L286.274 191.483L286.274 191.483Z" fill="#90CAF9"/>
	<path d="M109.475 61.9228C109.235 61.8359 109.02 61.668 108.877 61.4318C108.545 60.8826 108.72 60.1691 109.27 59.8376C132.38 45.8602 159.774 40.0348 186.408 43.4319C195.096 44.5393 203.718 46.6239 212.034 49.6256C231.643 56.7035 249.11 68.7865 262.544 84.5686C262.96 85.0569 262.9 85.7901 262.413 86.2048C261.924 86.6207 261.191 86.5611 260.776 86.0737C247.603 70.5986 230.476 58.75 211.245 51.809C203.088 48.8648 194.633 46.8215 186.114 45.7347C159.998 42.4029 133.134 48.1168 110.471 61.8238C110.159 62.0121 109.793 62.0375 109.475 61.9227L109.475 61.9228Z" fill="#90CAF9"/>
	<path d="M130.667 275.054C108.857 267.182 89.949 253.306 75.9865 234.927C71.472 228.985 67.4894 222.579 64.148 215.889C59.7807 207.142 56.4884 197.879 54.3611 188.357C49.4096 166.188 50.8876 143.123 58.6358 121.656C58.8533 121.054 59.5192 120.741 60.1219 120.959C60.7245 121.176 61.0372 121.842 60.8197 122.445C53.2215 143.495 51.7714 166.112 56.6265 187.85C58.7126 197.189 61.942 206.273 66.2256 214.852C69.5018 221.413 73.4078 227.695 77.8352 233.522C91.5262 251.545 110.068 265.151 131.455 272.87C145.362 277.89 159.84 280.235 174.488 279.841C175.127 279.824 175.662 280.328 175.68 280.97C175.697 281.611 175.191 282.145 174.55 282.162C159.612 282.565 144.848 280.173 130.667 275.055L130.667 275.054Z" fill="#90CAF9"/>
	<path d="M122.776 32.8603C122.464 32.7478 122.203 32.5046 122.079 32.1687C121.858 31.5668 122.166 30.8999 122.768 30.679C126.257 29.3959 129.85 28.2341 133.448 27.2246C134.064 27.0511 134.705 27.4113 134.879 28.0293C135.052 28.6453 134.693 29.2868 134.074 29.4594C130.536 30.4529 127.001 31.5962 123.57 32.858C123.302 32.956 123.023 32.9495 122.776 32.8601L122.776 32.8603ZM101.753 42.6492C101.503 42.5587 101.283 42.3823 101.14 42.1333C100.822 41.5765 101.015 40.8679 101.571 40.5497C104.944 38.6207 108.441 36.8105 111.964 35.1717C112.544 34.9014 113.236 35.1528 113.506 35.7347C113.776 36.3164 113.524 37.0058 112.943 37.2767C109.48 38.888 106.042 40.6675 102.724 42.5642C102.417 42.7404 102.063 42.7605 101.753 42.6487L101.753 42.6492ZM82.662 55.8104C82.4714 55.7416 82.2974 55.623 82.1601 55.4558C81.7535 54.96 81.8247 54.2291 82.3202 53.822C85.3271 51.3519 88.4717 48.9829 91.6674 46.7804C92.1965 46.416 92.9173 46.5495 93.282 47.0778C93.6459 47.6057 93.5126 48.3284 92.9849 48.6929C89.8434 50.8581 86.751 53.1875 83.7946 55.6154C83.4666 55.8854 83.0344 55.9448 82.6624 55.8105L82.662 55.8104Z" fill="#90CAF9"/>
	<path d="M35.7383 130.394C35.1874 130.195 34.8631 129.608 35.0071 129.025C35.6804 126.279 36.4467 123.519 37.2851 120.822C37.6004 119.805 37.9282 118.793 38.2671 117.786C38.4719 117.178 39.1303 116.852 39.7383 117.056L39.7626 117.064C40.3547 117.278 40.6701 117.928 40.4685 118.527C40.134 119.517 39.8133 120.512 39.502 121.511C38.6784 124.163 37.925 126.878 37.2616 129.579C37.1093 130.201 36.4809 130.582 35.8577 130.429L35.7388 130.393L35.7383 130.394ZM32.1165 153.302C31.6393 153.13 31.3144 152.656 31.3536 152.125C31.6373 148.247 32.089 144.335 32.6956 140.498C32.7963 139.865 33.391 139.433 34.0244 139.532C34.6516 139.636 35.0894 140.227 34.9893 140.861C34.3918 144.635 33.9485 148.481 33.6696 152.294C33.6228 152.933 33.0666 153.415 32.4273 153.367C32.3186 153.359 32.2142 153.337 32.1167 153.301L32.1165 153.302ZM32.3771 176.493C31.9675 176.345 31.6592 175.973 31.6149 175.511C31.2451 171.637 31.0357 167.704 30.9928 163.823C30.9852 163.183 31.4998 162.657 32.1413 162.65C32.7804 162.644 33.3073 163.157 33.3146 163.798C33.3572 167.614 33.5628 171.482 33.9264 175.292C33.9875 175.929 33.5191 176.496 32.8804 176.557C32.7042 176.574 32.5336 176.55 32.3774 176.493L32.3771 176.493Z" fill="#90CAF9"/>
	<path d="M59.8479 247.3C59.6427 247.225 59.4563 247.094 59.3156 246.907C51.5865 236.673 45.2994 225.403 40.6313 213.409C40.3985 212.812 40.694 212.139 41.2913 211.906C41.8892 211.673 42.5619 211.97 42.7946 212.567C47.3869 224.362 53.5682 235.445 61.1696 245.509C61.5555 246.02 61.4536 246.748 60.9422 247.135C60.6167 247.38 60.2043 247.429 59.8482 247.3L59.8479 247.3Z" fill="#90CAF9"/>
	<path d="M123.834 294.392C119.179 292.712 114.597 290.781 110.151 288.625C109.575 288.344 109.334 287.65 109.613 287.074C109.893 286.498 110.588 286.262 111.164 286.536C117.462 289.59 124.036 292.183 130.706 294.246C145.45 298.804 160.721 300.841 176.096 300.3C176.736 300.278 177.274 300.778 177.297 301.419C177.319 302.061 176.818 302.599 176.177 302.621C160.542 303.17 145.014 301.099 130.021 296.464C127.948 295.823 125.884 295.132 123.834 294.392L123.834 294.392Z" fill="#90CAF9"/>
	<path d="M236.682 286.138C236.421 286.044 236.193 285.857 236.053 285.593C235.75 285.028 235.963 284.324 236.529 284.022C250.047 276.798 262.191 267.413 272.623 256.125C273.058 255.655 273.792 255.628 274.263 256.061C274.734 256.496 274.763 257.23 274.327 257.702C263.719 269.179 251.37 278.723 237.624 286.069C237.322 286.231 236.98 286.245 236.682 286.137L236.682 286.138Z" fill="#90CAF9"/>
	<path d="M72.1641 285.406C71.5846 285.197 70.9431 285.498 70.7341 286.078C70.6182 286.399 70.655 286.75 70.8364 287.044L71.2179 287.665L70.5272 287.898C70.201 288.008 69.9481 288.255 69.8323 288.576C69.7163 288.897 69.7531 289.249 69.9345 289.542L70.3158 290.164L69.6252 290.397C69.2993 290.506 69.0464 290.753 68.9302 291.075C68.721 291.655 69.0222 292.296 69.6018 292.505L78.4176 295.687C78.9972 295.896 79.6387 295.595 79.8478 295.016C79.9639 294.694 79.9271 294.342 79.7459 294.051L79.3613 293.429L80.0538 293.195C80.3807 293.086 80.6335 292.839 80.7497 292.517C80.8655 292.196 80.8287 291.844 80.6478 291.552L80.2634 290.93L80.9557 290.697C81.2826 290.587 81.5355 290.34 81.6515 290.019C81.8607 289.439 81.5589 288.797 80.9798 288.588L72.164 285.406L72.1641 285.406ZM78.0234 296.779L69.2077 293.597C68.0263 293.17 67.4118 291.862 67.8382 290.681C68.0027 290.225 68.3013 289.843 68.6911 289.577C68.5613 289.123 68.5758 288.638 68.7403 288.182C68.9048 287.726 69.2032 287.344 69.5932 287.078C69.4635 286.623 69.4778 286.139 69.6423 285.683C70.069 284.501 71.3766 283.887 72.5584 284.313L81.3742 287.495C82.5556 287.922 83.1704 289.23 82.7437 290.412C82.5792 290.868 82.28 291.249 81.89 291.516C82.0199 291.97 82.0064 292.455 81.8418 292.911C81.6774 293.366 81.378 293.748 80.988 294.015C81.1179 294.469 81.1042 294.954 80.9397 295.41C80.5133 296.591 79.2048 297.205 78.0234 296.779Z" fill="#90CAF9"/>
	<path d="M71.7038 295.874L74.6478 296.936C74.879 296.8 75.3062 296.254 75.5168 295.875L71.7139 294.502C71.6333 294.928 71.6142 295.621 71.7042 295.874L71.7038 295.874ZM74.3557 298.065L71.2089 296.929C70.1445 296.545 70.5183 294.333 70.6787 293.889L70.9963 293.009L77.0223 295.184L76.7047 296.064C76.5441 296.509 75.4201 298.449 74.3557 298.065Z" fill="#90CAF9"/>
	<path d="M72.9506 284.455L80.9816 287.353C82.2367 284.113 84.6945 281.405 87.9336 279.706C90.4006 278.413 92.2803 276.257 93.2271 273.634C94.2707 270.743 94.0648 267.514 92.6601 264.776C91.2369 262 88.8001 260 85.7747 259.143C80.4401 257.628 74.7554 260.326 72.5526 265.417C71.325 268.255 71.3137 271.378 72.5199 274.209C73.9205 277.499 74.0717 281.124 72.951 284.455L72.9506 284.455ZM81.6766 288.838L71.4681 285.154L71.755 284.359C72.8864 281.224 72.7779 277.781 71.4515 274.665C70.119 271.538 70.1313 268.09 71.4861 264.956C73.9199 259.332 80.2 256.353 86.0919 258.026C89.4152 258.963 92.1208 261.18 93.6927 264.246C95.2436 267.269 95.4713 270.835 94.3185 274.029C93.273 276.925 91.1966 279.307 88.472 280.735C85.3922 282.35 83.0816 284.946 81.963 288.045L81.6764 288.839L81.6766 288.838Z" fill="#90CAF9"/>
	<path d="M173.434 5.28444L169.071 17.3733C166.665 24.0399 170.131 31.4204 176.797 33.8264C183.463 36.2326 190.843 32.7669 193.249 26.1002L197.613 14.0114L191.251 11.7151L186.641 24.4867C185.501 27.6444 182.005 29.2864 178.847 28.1465C175.689 27.0067 174.047 23.5102 175.187 20.3525L179.797 7.58089L173.434 5.28444ZM176.403 34.918C169.134 32.2943 165.356 24.2476 167.979 16.9791L172.737 3.79834L181.283 6.88306L176.279 20.7466C175.356 23.3025 176.685 26.132 179.241 27.0545C181.797 27.9771 184.626 26.6484 185.549 24.0925L190.553 10.229L199.098 13.3134L194.341 26.4942C191.717 33.7631 183.67 37.5412 176.402 34.9178L176.403 34.918Z" fill="#90CAF9"/>
	<path d="M173.829 4.19285L180.191 6.4893L181.145 3.84602L174.783 1.54957L173.829 4.19285ZM180.889 7.97539L172.342 4.89067L174.085 0.0634766L182.631 3.1482L180.889 7.97539Z" fill="#90CAF9"/>
	<path d="M191.645 10.6234L198.006 12.9197L198.961 10.2764L192.599 7.98009L191.645 10.6234ZM198.704 14.4058L190.159 11.3213L191.901 6.49414L200.447 9.57857L198.704 14.4058Z" fill="#90CAF9"/>
	<path d="M210.587 327.067L185.712 318.088C184.281 317.572 183.538 315.989 184.055 314.559L195.699 282.298C196.215 280.868 197.798 280.125 199.228 280.641L224.104 289.62C225.534 290.136 226.277 291.719 225.761 293.149L221.118 306.013C221.009 306.314 220.676 306.47 220.375 306.362C220.073 306.253 219.917 305.92 220.026 305.619L224.669 292.755C224.968 291.927 224.538 291.011 223.71 290.712L198.834 281.733C198.005 281.434 197.09 281.865 196.791 282.692L185.146 314.953C184.847 315.782 185.277 316.697 186.106 316.996L210.982 325.975C211.81 326.274 212.726 325.844 213.025 325.016L216.848 314.424C216.956 314.122 217.289 313.966 217.591 314.075C217.892 314.183 218.049 314.516 217.94 314.818L214.117 325.41C213.6 326.84 212.018 327.583 210.587 327.067Z" fill="#90CAF9"/>
	<path d="M209.368 302.389C208.691 302.145 207.941 302.497 207.697 303.174L205.799 308.43C205.555 309.107 205.907 309.858 206.584 310.102L219.042 314.598C219.155 314.639 219.28 314.58 219.321 314.468L221.957 307.165C221.998 307.051 221.939 306.927 221.826 306.886L209.368 302.389L209.368 302.389ZM218.648 315.69L206.19 311.194C204.91 310.732 204.246 309.315 204.707 308.036L206.604 302.781C207.066 301.501 208.483 300.836 209.762 301.297L222.22 305.794C222.935 306.052 223.306 306.843 223.048 307.559L220.412 314.862C220.154 315.577 219.363 315.948 218.648 315.69Z" fill="#90CAF9"/>
	<path d="M210.405 305.626C209.675 305.362 208.867 305.742 208.604 306.472C208.34 307.203 208.719 308.011 209.449 308.274C210.179 308.538 210.987 308.158 211.251 307.428C211.514 306.698 211.135 305.889 210.405 305.626ZM209.055 309.366C207.723 308.885 207.031 307.41 207.512 306.078C207.993 304.746 209.467 304.053 210.799 304.534C212.132 305.015 212.823 306.49 212.343 307.822C211.862 309.154 210.388 309.847 209.055 309.366Z" fill="#90CAF9"/>
	<path d="M200.614 281.142L206.717 283.345L209.582 275.408L206.096 276.571C205.84 276.655 205.561 276.554 205.418 276.326L203.478 273.205L200.614 281.141L200.614 281.142ZM206.869 284.634L199.674 282.037C199.373 281.928 199.216 281.595 199.325 281.293L202.793 271.684C202.869 271.476 203.057 271.327 203.279 271.304C203.499 271.28 203.716 271.385 203.833 271.575L206.163 275.324L210.351 273.927C210.563 273.856 210.796 273.913 210.95 274.073C211.106 274.232 211.156 274.467 211.081 274.676L207.613 284.285C207.504 284.586 207.171 284.742 206.87 284.634L206.869 284.634Z" fill="#90CAF9"/>
	<path d="M41.4499 67.481C40.6141 67.1793 39.688 67.6145 39.3865 68.4499L30.6748 92.5858C30.3728 93.4224 30.8072 94.3482 31.6434 94.65L73.389 109.718C74.2248 110.02 75.1509 109.584 75.4527 108.748L84.1644 84.6122C84.4661 83.7765 84.0309 82.8504 83.1956 82.5489L41.4499 67.481ZM72.9948 110.81L31.2491 95.7424C29.8111 95.2233 29.0635 93.6305 29.5828 92.1917L38.2946 68.0557C38.8135 66.6181 40.4062 65.8696 41.8442 66.3886L83.5898 81.4565C85.0282 81.9757 85.7758 83.5685 85.2568 85.0065L76.545 109.142C76.0259 110.581 74.4336 111.33 72.9948 110.81Z" fill="#90CAF9"/>
	<path d="M81.2085 94.5118L62.0365 87.5918C61.735 87.4829 61.5787 87.1502 61.6876 86.8487C61.7963 86.5476 62.1291 86.391 62.4306 86.4998L81.6026 93.4198C81.9041 93.5287 82.0602 93.8618 81.9515 94.1629C81.8427 94.4644 81.51 94.6206 81.2085 94.5118Z" fill="#90CAF9"/>
	<path d="M54.5097 84.8753L35.3385 77.9555C35.037 77.8467 34.8808 77.514 34.9896 77.2125C35.0983 76.9114 35.4312 76.7547 35.7327 76.8636L54.9038 83.7833C55.2054 83.8921 55.3614 84.2252 55.2528 84.5264C55.1439 84.8279 54.8112 84.9841 54.5097 84.8753Z" fill="#90CAF9"/>
	<path d="M53.4927 89.4049L59.9271 91.7273L62.2237 85.3646C62.5405 84.4868 62.084 83.5146 61.2058 83.1976L57.9562 82.0247C57.0784 81.7078 56.1058 82.1642 55.7889 83.042L53.4923 89.4047L53.4927 89.4049ZM60.0789 93.0164L52.5526 90.2998C52.2515 90.1911 52.095 89.8579 52.2037 89.5567L54.6974 82.648C55.2316 81.1679 56.8707 80.3986 58.3504 80.9327L61.5999 82.1056C63.08 82.6398 63.8499 84.2787 63.3156 85.7588L60.822 92.6675C60.7133 92.9686 60.3805 93.1252 60.0789 93.0164Z" fill="#90CAF9"/>
	<path d="M53.0986 90.4968L52.6001 91.8778C51.9596 93.6525 52.882 95.6163 54.6564 96.2567C56.4299 96.8969 58.3939 95.975 59.0345 94.2002L59.5329 92.8193L53.0986 90.4968ZM54.2622 97.3487C51.8852 96.4907 50.6502 93.8606 51.5082 91.4836L52.2037 89.5567C52.3125 89.2552 52.6452 89.099 52.9467 89.2078L60.4731 91.9244C60.7746 92.0332 60.9308 92.3659 60.822 92.6674L60.1265 94.5944C59.2685 96.9713 56.638 98.2062 54.2622 97.3487Z" fill="#90CAF9"/>
	<path d="M55.869 92.8973C55.3541 92.7115 54.7842 92.9788 54.5984 93.4936C54.4126 94.0084 54.6804 94.5781 55.1952 94.7639C55.7092 94.9495 56.2792 94.6822 56.465 94.1674C56.6508 93.6525 56.383 93.0829 55.869 92.8973ZM54.8011 95.8559C53.684 95.4527 53.1034 94.2161 53.5064 93.0995C53.9095 91.9828 55.146 91.4022 56.2631 91.8054C57.3793 92.2083 57.9596 93.4447 57.5565 94.5613C57.1535 95.678 55.9173 96.2588 54.8011 95.8559Z" fill="#90CAF9"/>
	<path d="M48.7892 68.8962L51.3075 69.8052L51.5668 69.0868L50.1114 68.5615C49.6309 68.3881 49.1102 68.5368 48.7892 68.8962ZM51.4593 71.0942L47.767 69.7615C47.4654 69.6526 47.3094 69.3196 47.4181 69.0184L47.4611 68.899C47.9063 67.6658 49.2723 67.0244 50.5055 67.4695L52.5069 68.1919C52.808 68.3006 52.9645 68.6338 52.8558 68.935L52.2022 70.7457C52.0935 71.0468 51.7603 71.2033 51.4591 71.0946L51.4593 71.0942Z" fill="#90CAF9"/>
	<path d="M55.4527 71.3011L57.9701 72.2097C57.9528 71.7277 57.6478 71.2814 57.1674 71.108L55.712 70.5827L55.4527 71.3011ZM58.2045 73.5286L54.5125 72.196C54.211 72.0871 54.0549 71.754 54.1636 71.4529L54.8172 69.6422C54.9259 69.3411 55.2587 69.1844 55.5603 69.2933L57.5616 70.0156C58.7948 70.4608 59.4359 71.8266 58.9908 73.0598L58.9477 73.1792C58.839 73.4804 58.5057 73.6368 58.2046 73.5281L58.2045 73.5286Z" fill="#90CAF9"/>
	<path d="M67.4642 75.6366L69.982 76.5454L70.2413 75.827L68.7855 75.3016C68.3051 75.1282 67.7852 75.2772 67.4642 75.6366ZM70.1339 77.8344L66.4415 76.5017C66.1404 76.393 65.9839 76.0598 66.0926 75.7587L66.1357 75.6393C66.5808 74.4061 67.946 73.7643 69.1796 74.2096L71.1814 74.9321C71.4829 75.041 71.639 75.3741 71.5303 75.6752L70.8768 77.4859C70.7681 77.7871 70.4352 77.9437 70.1337 77.8349L70.1339 77.8344Z" fill="#90CAF9"/>
	<path d="M74.1269 78.0418L76.6451 78.9507C76.6278 78.4688 76.3228 78.0224 75.8424 77.849L74.3862 77.3234L74.1269 78.0418ZM76.8791 80.2694L73.1867 78.9367C72.8856 78.828 72.7291 78.4948 72.8378 78.1936L73.4914 76.3829C73.6001 76.0818 73.9329 75.9251 74.2345 76.034L76.2366 76.7567C77.4703 77.2019 78.1109 78.5677 77.6658 79.8009L77.6227 79.9203C77.514 80.2214 77.1811 80.378 76.8796 80.2692L76.8791 80.2694Z" fill="#90CAF9"/>
	<path d="M71.074 76.9397L73.0349 77.6475L75.9389 69.6019C76.2873 68.6366 75.7854 67.5684 74.821 67.2203L57.6844 61.0349C56.7199 60.6868 55.6519 61.1883 55.3035 62.1536L52.3994 70.1992L54.3608 70.9071L56.9913 63.6192C57.1 63.3181 57.4328 63.1614 57.7343 63.2703L73.3556 68.9087C73.6572 69.0175 73.8132 69.3506 73.7045 69.6518L71.074 76.9397ZM73.1863 78.9364L70.1339 77.8346C69.8324 77.7258 69.6763 77.3927 69.785 77.0915L72.4155 69.8036L57.8862 64.5593L55.2556 71.8472C55.147 72.1484 54.8141 72.305 54.5126 72.1962L51.4593 71.0941C51.1578 70.9853 51.0017 70.6522 51.1104 70.3511L54.2115 61.7595C54.7771 60.1924 56.5118 59.3775 58.0785 59.943L75.2151 66.1284C76.7818 66.6939 77.5961 68.4288 77.0305 69.9959L73.9294 78.5874C73.8207 78.8886 73.4879 79.0452 73.1863 78.9364Z" fill="#90CAF9"/>
	<path d="M297.411 203.332L291.775 218.947L307.379 211.62C305.168 207.791 301.684 204.873 297.51 203.367L297.411 203.332L297.411 203.332ZM290.556 220.614C290.486 220.588 290.42 220.549 290.362 220.497C290.189 220.339 290.128 220.092 290.207 219.871L296.511 202.407C296.617 202.114 296.936 201.957 297.234 202.052C297.49 202.133 297.697 202.201 297.904 202.275C302.541 203.949 306.375 207.262 308.701 211.606C308.775 211.746 308.79 211.911 308.74 212.063C308.69 212.214 308.58 212.339 308.435 212.406L290.999 220.594C290.857 220.66 290.697 220.665 290.556 220.614L290.556 220.614Z" fill="#90CAF9"/>
	<path d="M292.14 222.521L300.299 239.897C304.554 237.725 307.776 234.075 309.404 229.563C311.144 224.742 310.827 219.399 308.545 214.818L292.14 222.521L292.14 222.521ZM299.828 241.225C299.682 241.172 299.564 241.065 299.499 240.925L290.842 222.49C290.706 222.199 290.831 221.853 291.121 221.717L308.558 213.529C308.836 213.398 309.17 213.509 309.316 213.781C311.98 218.758 312.41 224.654 310.496 229.957C308.697 234.942 305.066 238.937 300.273 241.203C300.133 241.269 299.973 241.277 299.828 241.225L299.828 241.225Z" fill="#90CAF9"/>
	<path d="M293.193 204.869C283.697 202.134 273.759 207.169 270.378 216.534C266.866 226.267 271.926 237.042 281.658 240.555C286.204 242.196 291.104 242.031 295.522 240.102L287.118 222.202C287.052 222.063 287.044 221.904 287.096 221.759L293.193 204.869ZM281.264 241.647C270.929 237.917 265.556 226.474 269.286 216.139C272.949 205.993 283.858 200.634 294.124 203.938C294.276 203.997 294.396 204.094 294.467 204.236C294.536 204.377 294.545 204.541 294.492 204.688L288.27 221.926L296.823 240.141C296.958 240.43 296.835 240.775 296.546 240.912C291.711 243.198 286.284 243.459 281.263 241.647L281.264 241.647Z" fill="#90CAF9"/>
	<path d="M296.102 240.938C295.963 240.888 295.843 240.784 295.775 240.639C295.638 240.348 295.762 240.001 296.051 239.864C296.341 239.729 296.687 239.85 296.823 240.141L296.825 240.146C296.962 240.436 296.837 240.781 296.547 240.917C296.401 240.986 296.243 240.989 296.102 240.938Z" fill="#90CAF9"/>
	<path d="M28.132 181.526C19.8569 178.539 10.6947 182.841 7.70788 191.116C4.72089 199.392 9.02302 208.555 17.2981 211.541C25.574 214.529 34.7358 210.226 37.7229 201.95C40.7096 193.676 36.4079 184.513 28.132 181.526ZM16.9041 212.633C8.0272 209.429 3.4117 199.6 6.61592 190.722C9.82 181.845 19.6493 177.23 28.5262 180.434C37.4039 183.638 42.0189 193.467 38.8149 202.344C35.6105 211.222 25.7818 215.837 16.9041 212.633Z" fill="#90CAF9"/>
	<path d="M18.0269 209.486C17.7509 209.386 17.4823 209.279 17.2218 209.164C15.6312 208.49 14.0377 207.393 12.8575 206.157C11.8527 205.131 11.3369 204.302 11.3155 204.267C11.1471 203.995 11.2317 203.637 11.5048 203.469C11.7769 203.3 12.134 203.386 12.3031 203.656C12.3077 203.664 12.7796 204.418 13.6923 205.35C14.7564 206.463 16.2466 207.489 17.6827 208.098C19.1134 208.728 20.8805 209.121 22.4215 209.151L23.3576 209.146C23.5011 209.135 23.6618 209.118 23.8055 209.103L24.6617 209.012C24.9803 208.975 25.2672 209.208 25.3017 209.525C25.337 209.843 25.1077 210.13 24.7884 210.165L23.9305 210.257C23.7705 210.275 23.5924 210.294 23.3969 210.306L22.4121 210.311C20.972 210.284 19.4187 209.988 18.0268 209.486L18.0269 209.486Z" fill="#90CAF9"/>
	<path d="M9.96169 201.136C9.79535 201.076 9.65846 200.942 9.60281 200.759L9.35245 199.938C9.31085 199.727 9.27728 199.57 9.24152 199.403C9.14828 198.967 9.04233 198.472 9.01137 197.944C8.93628 197.44 8.93673 196.886 8.9371 196.44C8.93738 196.296 8.93798 196.162 8.93548 196.037C8.97075 195.456 9.0127 195.102 9.0127 195.102C9.05021 194.784 9.33906 194.556 9.65718 194.594C9.97346 194.634 10.203 194.919 10.1653 195.238C10.1643 195.246 10.1263 195.573 10.0954 196.062C10.0991 196.146 10.0987 196.289 10.0984 196.441C10.098 196.87 10.0965 197.356 10.1648 197.826C10.1963 198.315 10.2924 198.764 10.3771 199.159C10.4158 199.341 10.4516 199.512 10.48 199.667L10.7131 200.421C10.8064 200.728 10.6332 201.052 10.3271 201.146C10.2021 201.184 10.0746 201.177 9.96129 201.136L9.96169 201.136Z" fill="#90CAF9"/>
	<path d="M10.3106 192.077L10.2826 192.066C9.98664 191.942 9.8479 191.601 9.97182 191.306L10.1421 190.898C10.2255 190.66 10.3914 190.357 10.583 190.006L10.6956 189.8C11.2168 188.815 12.0301 187.733 12.9236 186.838C13.6549 186.061 14.612 185.321 15.8399 184.586L16.3004 184.342C16.5492 184.209 16.7626 184.095 16.9344 184.016L17.3664 183.838C17.6617 183.716 18.0016 183.855 18.1243 184.153C18.2469 184.448 18.1063 184.788 17.81 184.911L17.3983 185.081C17.2647 185.143 17.0723 185.246 16.8473 185.366L16.4066 185.599C15.3015 186.261 14.4252 186.937 13.7567 187.646C12.9414 188.463 12.184 189.469 11.7187 190.348L11.6012 190.564C11.4336 190.871 11.2889 191.136 11.225 191.316L11.042 191.756C10.9214 192.043 10.5991 192.182 10.3105 192.078L10.3106 192.077Z" fill="#90CAF9"/>
	<path d="M21.3445 183.932C21.1405 183.858 20.9858 183.674 20.9636 183.442C20.9315 183.124 21.1652 182.839 21.4843 182.808L21.8836 182.768C22.0724 182.756 22.2736 182.755 22.4871 182.755L22.8225 182.753C23.1476 182.743 23.5068 182.757 23.7958 182.796L24.1757 182.832C24.4896 182.862 24.7288 183.145 24.6977 183.465C24.6672 183.783 24.3832 184.017 24.0643 183.987L23.6639 183.949C23.4174 183.916 23.1225 183.905 22.8519 183.914L22.4869 183.916C22.2999 183.916 22.1238 183.916 21.9793 183.925L21.5985 183.963C21.5097 183.972 21.4235 183.96 21.345 183.932L21.3445 183.932Z" fill="#90CAF9"/>
	<path d="M30.8747 186.863C30.8079 186.839 30.744 186.802 30.687 186.752C30.6811 186.747 30.527 186.611 30.2866 186.424L29.3059 185.757L28.282 185.201C28.0543 185.084 27.8801 185.019 27.8603 185.012L27.8586 185.012C27.5587 184.903 27.4026 184.573 27.5084 184.272C27.6153 183.971 27.9455 183.813 28.2479 183.918C28.2489 183.915 28.4865 184.001 28.8258 184.175L29.9103 184.767L30.9699 185.486C31.2788 185.725 31.4569 185.883 31.4569 185.883C31.6968 186.095 31.7186 186.462 31.5061 186.702C31.3434 186.885 31.0916 186.942 30.8742 186.863L30.8747 186.863Z" fill="#90CAF9"/>
	<path d="M35.037 201.254C34.7488 201.15 34.5883 200.836 34.6796 200.538L34.8322 200.041C34.9068 199.8 35.0006 199.501 35.059 199.139C35.268 198.286 35.3624 197.122 35.33 195.899C35.2301 194.634 35.0275 193.515 34.7594 192.777C34.6468 192.366 34.5232 192.072 34.4243 191.835L34.2299 191.368C34.1081 191.071 34.2499 190.732 34.5463 190.61C34.8421 190.489 35.1818 190.63 35.3038 190.926L35.4939 191.387C35.6014 191.64 35.7473 191.99 35.8656 192.429C36.239 193.449 36.4117 194.851 36.4891 195.838C36.5266 197.209 36.4223 198.453 36.1956 199.37C36.1336 199.767 36.0218 200.125 35.9406 200.387L35.7898 200.878C35.6963 201.185 35.3719 201.357 35.0648 201.263L35.037 201.254Z" fill="#90CAF9"/>
	<path d="M146.771 72.7745L153.415 64.3565L157.491 73.0392L146.771 72.7745Z" fill="#90CAF9"/>
	<path d="M141.085 75.4438L134.442 83.8616L130.364 75.1798L141.085 75.4438Z" fill="#90CAF9"/>
	<path d="M145.323 77.0791L153.74 83.7229L145.059 87.7998L145.323 77.0791Z" fill="#90CAF9"/>
	<path d="M142.533 71.1391L142.797 60.4183L134.115 64.495L142.533 71.1391Z" fill="#90CAF9"/>
	<path fill-rule="evenodd" clip-rule="evenodd" d="M84.2978 144.74L75.0765 144.679C73.8033 144.671 72.7779 143.632 72.7863 142.359C72.7947 141.085 73.8337 140.06 75.1069 140.069L84.3282 140.13C85.6014 140.138 86.6264 141.177 86.618 142.45C86.6096 143.723 85.571 144.748 84.2978 144.74ZM65.2389 144.615C63.9657 144.606 62.9403 143.568 62.9487 142.294C62.9571 141.021 63.9961 139.996 65.2693 140.004C66.5425 140.013 67.5675 141.051 67.5591 142.325C67.5507 143.598 66.5121 144.623 65.2389 144.615ZM72.7257 151.581C72.7173 152.855 73.7427 153.893 75.0159 153.901C76.289 153.909 77.3281 152.885 77.3365 151.612C77.3449 150.338 76.3194 149.299 75.0463 149.291C73.7731 149.282 72.7341 150.307 72.7257 151.581ZM93.4583 154.022L84.237 153.962C82.9638 153.953 81.9384 152.915 81.9468 151.642C81.9552 150.368 82.9942 149.343 84.2674 149.351L93.4887 149.412C94.7619 149.42 95.7864 150.459 95.778 151.733C95.7696 153.006 94.7315 154.031 93.4583 154.022ZM68.1172 163.077L77.3384 163.138C78.6116 163.146 79.6502 162.121 79.6586 160.848C79.667 159.574 78.642 158.536 77.3688 158.527L68.1476 158.467C66.8744 158.458 65.8354 159.483 65.827 160.756C65.8186 162.03 66.844 163.069 68.1172 163.077ZM111.961 144.923L93.5196 144.801C92.2455 144.793 91.2205 143.754 91.2289 142.481C91.2373 141.207 92.2759 140.182 93.55 140.191L111.992 140.312C113.265 140.321 114.29 141.359 114.282 142.633C114.273 143.906 113.234 144.931 111.961 144.923ZM81.8861 160.863C81.8778 162.136 82.9032 163.175 84.1763 163.183C85.4495 163.192 86.4882 162.166 86.4966 160.893C86.505 159.62 85.4799 158.581 84.2068 158.573C82.9336 158.565 81.8945 159.59 81.8861 160.863Z" fill="#90CAF9"/>
	<deepl-alert xmlns=""/><deepl-alert xmlns=""/><deepl-alert xmlns=""/></svg>