<svg width="236" height="320" viewBox="0 0 236 320" fill="none" xmlns="http://www.w3.org/2000/svg">
<path d="M0 23L236 58V490H0L0 23Z" fill="url(#paint0_linear_104_12)"/>
<path d="M231.103 61.9018L107.273 80.5085C104.478 80.936 101.524 80.9233 98.7069 80.4718C95.8902 80.0203 93.3114 79.146 91.2311 77.9371L2.05012 25.943C1.2005 25.4614 0.581635 24.8591 0.257308 24.1984C-0.0670186 23.5376 -0.0850747 22.8423 0.205013 22.184C0.4951 21.5257 1.08283 20.9284 1.90761 20.4535C2.7324 19.9786 3.7644 19.6433 4.89723 19.4823L128.757 0.892972C131.548 0.464736 134.5 0.476171 137.314 0.926141C140.128 1.37611 142.705 2.24867 144.784 3.45563L233.965 55.4497C234.811 55.9322 235.426 56.5344 235.747 57.1946C236.068 57.8547 236.084 58.5489 235.792 59.2059C235.501 59.8629 234.913 60.4589 234.089 60.9327C233.265 61.4065 232.234 61.741 231.103 61.9018Z" fill="url(#paint1_linear_104_12)"/>
<defs>
<linearGradient id="paint0_linear_104_12" x1="84.6794" y1="-108.902" x2="118.251" y2="453.289" gradientUnits="userSpaceOnUse">
<stop stop-color="#0597F2"/>
<stop offset="1" stop-color="white"/>
</linearGradient>
<linearGradient id="paint1_linear_104_12" x1="32.8195" y1="-6.78378" x2="112.898" y2="122.599" gradientUnits="userSpaceOnUse">
<stop stop-color="#E4F5FF"/>
<stop offset="1" stop-color="#0597F2"/>
</linearGradient>
</defs>
</svg>
