<svg width="187" height="610" viewBox="0 0 187 610" fill="none" xmlns="http://www.w3.org/2000/svg">
<g opacity="0.9">
<path d="M-284 44.5L187 113.5V977H-284V44.5Z" fill="url(#paint0_linear_330_8301)"/>
<path d="M177.227 120.748L-69.9088 157.387C-75.486 158.228 -81.3831 158.203 -87.0045 157.314C-92.6259 156.425 -97.7725 154.704 -101.924 152.323L-279.908 49.9421C-281.604 48.9937 -282.839 47.8078 -283.486 46.5067C-284.134 45.2057 -284.17 43.8365 -283.591 42.5403C-283.012 41.2441 -281.839 40.0678 -280.193 39.1327C-278.547 38.1976 -276.487 37.5374 -274.226 37.2204L-27.0312 0.616237C-21.4612 -0.226998 -15.5704 -0.204482 -9.9541 0.68155C-4.33777 1.56758 0.805054 3.28574 4.95471 5.66236L182.939 108.044C184.627 108.994 185.854 110.179 186.495 111.479C187.136 112.779 187.167 114.146 186.586 115.44C186.004 116.733 184.831 117.907 183.186 118.84C181.541 119.773 179.484 120.432 177.227 120.748Z" fill="url(#paint1_linear_330_8301)"/>
</g>
<defs>
<linearGradient id="paint0_linear_330_8301" x1="-115" y1="-218.5" x2="-48" y2="903.5" gradientUnits="userSpaceOnUse">
<stop stop-color="#0597F2"/>
<stop offset="1" stop-color="white"/>
</linearGradient>
<linearGradient id="paint1_linear_330_8301" x1="-218.5" y1="-14.5" x2="-61.7718" y2="242.154" gradientUnits="userSpaceOnUse">
<stop stop-color="#E4F5FF"/>
<stop offset="1" stop-color="#0597F2"/>
</linearGradient>
</defs>
</svg>
