<svg width="414" height="559" viewBox="0 0 414 500" fill="none" xmlns="http://www.w3.org/2000/svg">
<path d="M0 39.4111L414 100.061V859H0L0 39.4111Z" fill="url(#paint0_linear_104_6)"/>
<path d="M405.41 106.431L188.182 138.635C183.28 139.375 178.096 139.353 173.155 138.572C168.214 137.791 163.69 136.277 160.041 134.185L3.5964 44.1938C2.10597 43.3602 1.02033 42.3178 0.45138 41.1742C-0.117567 40.0306 -0.149241 38.8271 0.359641 37.6878C0.868524 36.5484 1.89953 35.5145 3.34641 34.6926C4.79328 33.8706 6.60365 33.2904 8.59091 33.0117L225.871 0.837346C230.767 0.0961576 235.944 0.115949 240.881 0.894754C245.818 1.67356 250.338 3.18378 253.986 5.27279L410.43 95.2639C411.914 96.0989 412.993 97.1413 413.556 98.2838C414.12 99.4264 414.147 100.628 413.636 101.765C413.125 102.902 412.093 103.934 410.647 104.754C409.202 105.574 407.394 106.153 405.41 106.431Z" fill="url(#paint1_linear_104_6)"/>
<defs>
<linearGradient id="paint0_linear_104_6" x1="148.548" y1="-191.761" x2="207.44" y2="794.456" gradientUnits="userSpaceOnUse">
<stop stop-color="#0597F2"/>
<stop offset="1" stop-color="white"/>
</linearGradient>
<linearGradient id="paint1_linear_104_6" x1="57.5733" y1="-12.4495" x2="195.334" y2="213.145" gradientUnits="userSpaceOnUse">
<stop stop-color="#E4F5FF"/>
<stop offset="1" stop-color="#0597F2"/>
</linearGradient>
</defs>
</svg>
