<svg width="86" height="130" viewBox="0 0 86 130" fill="none" xmlns="http://www.w3.org/2000/svg">
<g opacity="0.9">
<path d="M0 8.125L86 21V178H0L0 8.125Z" fill="url(#paint0_linear_330_8329)"/>
<path d="M84.2155 22.3461L39.091 29.1265C38.0726 29.2822 36.9959 29.2776 35.9695 29.1131C34.943 28.9486 34.0033 28.63 33.2452 28.1895L0.747078 9.24245C0.437472 9.06693 0.211952 8.84747 0.0937649 8.60669C-0.024422 8.36591 -0.0310018 8.11252 0.0747081 7.87264C0.180418 7.63277 0.394589 7.41508 0.695147 7.24202C0.995705 7.06897 1.37177 6.9468 1.78459 6.88812L46.92 0.114043C47.937 -0.0420091 49.0126 -0.0378422 50.0381 0.12613C51.0636 0.290102 52.0026 0.608069 52.7603 1.04789L85.2584 19.9949C85.5666 20.1707 85.7908 20.3902 85.9078 20.6307C86.0248 20.8713 86.0305 21.1243 85.9244 21.3637C85.8182 21.6031 85.6039 21.8203 85.3036 21.9929C85.0033 22.1656 84.6277 22.2875 84.2155 22.3461Z" fill="url(#paint1_linear_330_8329)"/>
</g>
<defs>
<linearGradient id="paint0_linear_330_8329" x1="30.8578" y1="-39.8962" x2="43" y2="204" gradientUnits="userSpaceOnUse">
<stop stop-color="#0597F2"/>
<stop offset="1" stop-color="white"/>
</linearGradient>
<linearGradient id="paint1_linear_330_8329" x1="11.9597" y1="-2.68342" x2="41.141" y2="44.4646" gradientUnits="userSpaceOnUse">
<stop stop-color="#E4F5FF"/>
<stop offset="1" stop-color="#0597F2"/>
</linearGradient>
</defs>
</svg>
