<svg width="365" height="400" viewBox="0 0 365 400" fill="none" xmlns="http://www.w3.org/2000/svg">
<path d="M0 34.4851L365 87.9564V757H0L0 34.4851Z" fill="url(#paint0_linear_105_22)"/>
<path d="M357.426 93.5735L165.909 121.966C161.587 122.619 157.017 122.599 152.661 121.91C148.305 121.221 144.316 119.887 141.099 118.042L3.17074 38.7025C1.85671 37.9675 0.899563 37.0485 0.397956 36.0403C-0.103652 35.032 -0.131577 33.9709 0.317075 32.9665C0.765727 31.962 1.67471 31.0504 2.95033 30.3258C4.22596 29.6011 5.82206 29.0895 7.57411 28.8438L199.137 0.477551C203.454 -0.175912 208.019 -0.158463 212.371 0.528165C216.723 1.21479 220.709 2.54627 223.925 4.38803L361.853 83.728C363.161 84.4642 364.112 85.3832 364.609 86.3905C365.105 87.3979 365.13 88.4572 364.679 89.4597C364.228 90.4622 363.319 91.3717 362.044 92.0947C360.77 92.8177 359.176 93.3281 357.426 93.5735Z" fill="url(#paint1_linear_105_22)"/>
<defs>
<linearGradient id="paint0_linear_105_22" x1="130.966" y1="-169.326" x2="182.887" y2="700.165" gradientUnits="userSpaceOnUse">
<stop stop-color="#0597F2"/>
<stop offset="1" stop-color="white"/>
</linearGradient>
<linearGradient id="paint1_linear_105_22" x1="50.759" y1="-11.2367" x2="172.215" y2="187.657" gradientUnits="userSpaceOnUse">
<stop stop-color="#E4F5FF"/>
<stop offset="1" stop-color="#0597F2"/>
</linearGradient>
</defs>
</svg>
