<svg width="200" height="200" viewBox="0 0 200 200" fill="none" xmlns="http://www.w3.org/2000/svg">
<path d="M0 18.8955L200 49V415H0L0 18.8955Z" fill="url(#paint0_linear_105_28)"/>
<path d="M195.85 51.9676L90.9092 67.736C88.541 68.0983 86.0369 68.0875 83.6499 67.7049C81.2629 67.3223 79.0775 66.5814 77.3145 65.5569L1.73739 21.4941C1.01738 21.0859 0.492911 20.5755 0.218058 20.0156C-0.0567954 19.4556 -0.0720972 18.8663 0.17374 18.3085C0.419577 17.7506 0.917649 17.2444 1.61662 16.8419C2.31559 16.4395 3.19017 16.1554 4.1502 16.0189L109.116 0.265216C111.481 -0.0976955 113.983 -0.0880051 116.368 0.293325C118.753 0.674656 120.936 1.41411 122.698 2.43696L198.275 46.4998C198.992 46.9086 199.513 47.419 199.786 47.9784C200.058 48.5379 200.071 49.1262 199.824 49.683C199.577 50.2397 199.079 50.7448 198.38 51.1463C197.682 51.5478 196.809 51.8313 195.85 51.9676Z" fill="url(#paint1_linear_105_28)"/>
<defs>
<linearGradient id="paint0_linear_105_28" x1="71.7622" y1="-92.7818" x2="100.212" y2="383.651" gradientUnits="userSpaceOnUse">
<stop stop-color="#0597F2"/>
<stop offset="1" stop-color="white"/>
</linearGradient>
<linearGradient id="paint1_linear_105_28" x1="27.8132" y1="-6.24051" x2="95.6767" y2="103.406" gradientUnits="userSpaceOnUse">
<stop stop-color="#E4F5FF"/>
<stop offset="1" stop-color="#0597F2"/>
</linearGradient>
</defs>
</svg>
