<svg width="147" height="200" viewBox="0 0 147 200" fill="none" xmlns="http://www.w3.org/2000/svg">
<path d="M0 14.0001L147 36.0001V305H0L0 14.0001Z" fill="url(#paint0_linear_105_17)"/>
<path d="M143.95 38.2216L66.8183 49.8113C65.0776 50.0776 63.2371 50.0697 61.4827 49.7885C59.7282 49.5073 58.122 48.9627 56.8261 48.2097L1.27698 15.8235C0.747772 15.5235 0.36229 15.1484 0.160273 14.7368C-0.0417447 14.3253 -0.0529914 13.8921 0.127699 13.4821C0.308389 13.0721 0.674472 12.7 1.18822 12.4042C1.70196 12.1084 2.34477 11.8996 3.0504 11.7993L80.2004 0.220324C81.9389 -0.0464156 83.7774 -0.0392931 85.5302 0.240985C87.2831 0.521263 88.8882 1.06476 90.1833 1.81656L145.732 34.2027C146.259 34.5032 146.642 34.8783 146.842 35.2895C147.042 35.7007 147.052 36.1332 146.871 36.5424C146.689 36.9516 146.323 37.3228 145.81 37.6179C145.296 37.9131 144.654 38.1214 143.95 38.2216Z" fill="url(#paint1_linear_105_17)"/>
<defs>
<linearGradient id="paint0_linear_105_17" x1="52.7452" y1="-68.1696" x2="74" y2="333" gradientUnits="userSpaceOnUse">
<stop stop-color="#0597F2"/>
<stop offset="1" stop-color="white"/>
</linearGradient>
<linearGradient id="paint1_linear_105_17" x1="20.4427" y1="-4.56138" x2="70.3224" y2="76.0288" gradientUnits="userSpaceOnUse">
<stop stop-color="#E4F5FF"/>
<stop offset="1" stop-color="#0597F2"/>
</linearGradient>
</defs>
</svg>
