<svg width="204" height="70" viewBox="0 0 204 70" fill="none" xmlns="http://www.w3.org/2000/svg">
<path d="M199.268 53.1828L92.7742 69.0532C90.3709 69.4178 87.8298 69.407 85.4074 69.0219C82.9851 68.6368 80.7674 67.8911 78.9782 66.86L2.28264 22.5121C1.55196 22.1012 1.01974 21.5876 0.740816 21.024C0.461895 20.4604 0.446367 19.8673 0.695842 19.3058C0.945318 18.7444 1.45076 18.2349 2.16008 17.8298C2.86939 17.4247 3.75691 17.1388 4.73115 17.0015L111.251 1.14584C113.651 0.780579 116.189 0.790332 118.609 1.17413C121.03 1.55793 123.246 2.30217 125.034 3.33164L201.729 47.6796C202.457 48.0911 202.986 48.6047 203.262 49.1678C203.538 49.7309 203.552 50.323 203.301 50.8834C203.05 51.4437 202.545 51.9521 201.836 52.3562C201.127 52.7603 200.241 53.0456 199.268 53.1828Z" fill="url(#paint0_linear_330_8320)" fill-opacity="0.5"/>
<defs>
<linearGradient id="paint0_linear_330_8320" x1="28.7443" y1="-5.40198" x2="96.7945" y2="105.456" gradientUnits="userSpaceOnUse">
<stop stop-color="#E4F5FF"/>
<stop offset="1" stop-color="#0597F2"/>
</linearGradient>
</defs>
</svg>
