<svg width="358" height="121" viewBox="0 0 358 121" fill="none" xmlns="http://www.w3.org/2000/svg">
<path d="M350.23 91.8834L162.759 119.763C158.529 120.404 154.055 120.385 149.791 119.708C145.527 119.032 141.623 117.722 138.473 115.91L3.45945 38.0035C2.17319 37.2818 1.23627 36.3794 0.74526 35.3893C0.254251 34.3993 0.226916 33.3574 0.666088 32.371C1.10526 31.3847 1.99504 30.4896 3.24371 29.778C4.49238 29.0664 6.05475 28.5641 7.76978 28.3229L195.285 0.468926C199.51 -0.172734 203.979 -0.155601 208.239 0.518626C212.5 1.19285 216.401 2.50028 219.549 4.30877L354.563 82.2158C355.843 82.9387 356.774 83.8411 357.26 84.8302C357.747 85.8193 357.77 86.8596 357.329 87.844C356.888 88.8284 355.998 89.7214 354.75 90.4313C353.502 91.1413 351.942 91.6425 350.23 91.8834Z" fill="url(#paint0_linear_104_5)" fill-opacity="0.5"/>
<defs>
<linearGradient id="paint0_linear_104_5" x1="50.0422" y1="-11.0338" x2="169.475" y2="183.935" gradientUnits="userSpaceOnUse">
<stop stop-color="#E4F5FF"/>
<stop offset="1" stop-color="#0597F2"/>
</linearGradient>
</defs>
</svg>
