<svg width="315" height="106" viewBox="0 0 315 106" fill="none" xmlns="http://www.w3.org/2000/svg">
<path d="M308.464 81.0083L143.182 105.588C139.452 106.153 135.508 106.136 131.749 105.54C127.989 104.944 124.547 103.789 121.77 102.192L2.73639 33.5055C1.60237 32.8692 0.776335 32.0736 0.343441 31.2007C-0.0894528 30.3279 -0.113553 29.4093 0.27364 28.5397C0.660833 27.6701 1.4453 26.8809 2.54618 26.2536C3.64706 25.6262 5.02451 25.1834 6.53656 24.9706L171.858 0.413425C175.583 -0.15229 179.523 -0.137184 183.279 0.457243C187.035 1.05167 190.475 2.20436 193.25 3.7988L312.284 72.4849C313.413 73.1223 314.234 73.9178 314.662 74.7899C315.091 75.662 315.112 76.5791 314.723 77.447C314.334 78.3149 313.549 79.1022 312.449 79.7281C311.349 80.354 309.974 80.7959 308.464 81.0083Z" fill="url(#paint0_linear_105_21)" fill-opacity="0.5"/>
<defs>
<linearGradient id="paint0_linear_105_21" x1="43.8057" y1="-9.72785" x2="149.102" y2="162.165" gradientUnits="userSpaceOnUse">
<stop stop-color="#E4F5FF"/>
<stop offset="1" stop-color="#0597F2"/>
</linearGradient>
</defs>
</svg>
