<svg width="172" height="58" viewBox="0 0 172 58" fill="none" xmlns="http://www.w3.org/2000/svg">
<path d="M168.431 44.3253L78.1819 57.7748C76.1453 58.0838 73.9917 58.0747 71.9389 57.7483C69.8861 57.422 68.0067 56.79 66.4904 55.9162L1.49416 18.3332C0.874944 17.985 0.423904 17.5497 0.18753 17.0721C-0.0488441 16.5945 -0.0620036 16.0919 0.149416 15.6161C0.360836 15.1402 0.789178 14.7084 1.39029 14.3652C1.99141 14.0219 2.74354 13.7796 3.56917 13.6632L93.84 0.226214C95.874 -0.0833285 98.0252 -0.0750632 100.076 0.250189C102.127 0.575442 104.005 1.20616 105.521 2.07859L170.517 39.6616C171.133 40.0103 171.582 40.4456 171.816 40.9228C172.05 41.4 172.061 41.9018 171.849 42.3766C171.636 42.8515 171.208 43.2823 170.607 43.6248C170.006 43.9673 169.255 44.2091 168.431 44.3253Z" fill="url(#paint0_linear_105_26)" fill-opacity="0.5"/>
<defs>
<linearGradient id="paint0_linear_105_26" x1="23.9193" y1="-5.32279" x2="81.589" y2="88.6247" gradientUnits="userSpaceOnUse">
<stop stop-color="#E4F5FF"/>
<stop offset="1" stop-color="#0597F2"/>
</linearGradient>
</defs>
</svg>
