<svg width="127" height="43" viewBox="0 0 127 43" fill="none" xmlns="http://www.w3.org/2000/svg">
<path d="M124.086 32.5791L57.7528 42.4645C56.2558 42.6916 54.673 42.6849 53.1642 42.445C51.6553 42.2052 50.2739 41.7406 49.1595 41.0984L1.38727 13.4749C0.932146 13.219 0.600632 12.899 0.426897 12.548C0.253162 12.1969 0.24349 11.8275 0.398883 11.4778C0.554277 11.1281 0.869109 10.8107 1.31093 10.5584C1.75275 10.3061 2.30557 10.128 2.9124 10.0424L69.2614 0.166267C70.7565 -0.0612465 72.3376 -0.0551714 73.8451 0.183889C75.3525 0.42295 76.7329 0.886525 77.8467 1.52776L125.619 29.1512C126.072 29.4076 126.401 29.7275 126.574 30.0782C126.746 30.429 126.754 30.7978 126.598 31.1468C126.442 31.4959 126.127 31.8125 125.685 32.0642C125.244 32.316 124.692 32.4937 124.086 32.5791Z" fill="url(#paint0_linear_105_16)" fill-opacity="0.5"/>
<defs>
<linearGradient id="paint0_linear_105_16" x1="17.8698" y1="-3.91225" x2="60.2569" y2="65.1391" gradientUnits="userSpaceOnUse">
<stop stop-color="#E4F5FF"/>
<stop offset="1" stop-color="#0597F2"/>
</linearGradient>
</defs>
</svg>
