<svg width="152" height="52" viewBox="0 0 152 52" fill="none" xmlns="http://www.w3.org/2000/svg">
<path d="M148.386 39.6788L69.1351 51.7184C67.3466 51.995 65.4555 51.9868 63.6529 51.6947C61.8502 51.4026 60.1998 50.8368 58.8683 50.0546L1.79255 16.4114C1.24879 16.0997 0.852715 15.71 0.645146 15.2825C0.437577 14.8549 0.426021 14.405 0.611677 13.9791C0.797333 13.5531 1.17348 13.1666 1.70134 12.8593C2.2292 12.552 2.88968 12.3351 3.6147 12.2309L82.8851 0.2025C84.6712 -0.0745934 86.5603 -0.0671945 88.3613 0.223963C90.1624 0.51512 91.8116 1.07972 93.1423 1.86069L150.218 35.5039C150.759 35.8161 151.153 36.2058 151.359 36.6329C151.564 37.0601 151.574 37.5093 151.388 37.9344C151.201 38.3595 150.825 38.7452 150.297 39.0517C149.77 39.3583 149.11 39.5747 148.386 39.6788Z" fill="url(#paint0_linear_330_8321)" fill-opacity="0.5"/>
<defs>
<linearGradient id="paint0_linear_330_8321" x1="21.485" y1="-4.76481" x2="73.5524" y2="78.4424" gradientUnits="userSpaceOnUse">
<stop stop-color="#E4F5FF"/>
<stop offset="1" stop-color="#0597F2"/>
</linearGradient>
</defs>
</svg>
