<svg width="128" height="44" viewBox="0 0 128 44" fill="none" xmlns="http://www.w3.org/2000/svg">
<path d="M125.344 33.6261L58.1819 43.8292C56.6662 44.0636 55.0636 44.0566 53.5359 43.8091C52.0082 43.5615 50.6096 43.0821 49.4813 42.4192L1.11193 13.9079C0.651121 13.6438 0.315463 13.3136 0.139557 12.9512C-0.0363491 12.5889 -0.0461422 12.2076 0.111193 11.8467C0.268529 11.4857 0.587296 11.1581 1.03464 10.8977C1.48198 10.6373 2.04171 10.4535 2.65613 10.3652L69.8344 0.17161C71.3481 -0.0632147 72.949 -0.0569445 74.4753 0.189799C76.0016 0.436542 77.3992 0.915015 78.527 1.57686L126.896 30.0881C127.355 30.3526 127.689 30.6829 127.863 31.0449C128.037 31.4069 128.045 31.7875 127.887 32.1478C127.729 32.5081 127.41 32.8349 126.963 33.0947C126.516 33.3545 125.957 33.5379 125.344 33.6261Z" fill="url(#paint0_linear_105_27)" fill-opacity="0.5"/>
<defs>
<linearGradient id="paint0_linear_105_27" x1="17.8004" y1="-4.03798" x2="61.9254" y2="66.4766" gradientUnits="userSpaceOnUse">
<stop stop-color="#E4F5FF"/>
<stop offset="1" stop-color="#0597F2"/>
</linearGradient>
</defs>
</svg>
